<svg width="247" height="248" viewBox="0 0 247 248" fill="none" xmlns="http://www.w3.org/2000/svg">
<g clip-path="url(#clip0_111_10)">
<path d="M122.767 1.14929V3.58272L126.97 3.80364L126.526 15.5226H129.401L129.843 3.80364L134.046 4.02457V1.59274L122.767 1.14929ZM114.366 1.37021L104.637 2.47643L106.406 16.629L109.28 16.4064L108.617 10.4365L114.587 9.77374L114.366 7.34192L108.396 8.00469L107.954 4.68755L114.587 3.80384L114.366 1.37021ZM137.361 1.81371L135.15 15.9645L137.805 16.4064L138.688 10.4365H139.351C140.014 10.6576 140.457 10.6572 140.899 10.8784C141.12 11.0995 141.342 11.5426 141.564 11.7637C141.785 11.9848 142.005 12.869 142.668 13.9745L144.216 17.2916L147.705 17.5093L147.533 17.7335L150.407 18.6188L152.397 15.7436L157.925 17.2917L158.146 20.8297L161.242 21.7134L159.694 6.4568L156.82 5.57309L147.736 17.4684L146.427 14.4168C145.764 13.3112 145.542 12.4272 145.1 11.9849C144.879 11.5427 144.438 11.1 143.774 10.6577C145.101 10.6577 146.205 10.4374 146.869 9.77402C147.532 9.33178 147.975 8.44782 148.196 7.3422C148.417 6.67884 148.196 5.79307 147.975 5.12967C147.754 4.46628 147.311 4.02548 146.648 3.58324C145.984 3.14101 144.879 2.91902 143.331 2.69793L137.361 1.81371ZM96.1377 4.03779C95.6678 4.06543 95.1827 4.13497 94.6852 4.24552C93.5796 4.46664 92.4749 4.90936 91.8116 5.57273C91.1482 6.01497 90.7057 6.67845 90.2634 7.34175C89.8212 8.00506 89.6009 8.66812 89.3797 9.55259C89.1586 10.6581 89.1584 11.9848 89.6007 13.3115C90.0429 15.5227 91.1474 17.0696 92.6952 18.1751C94.243 19.0596 96.0122 19.2818 98.0023 18.8395C99.9924 18.3973 101.541 17.2912 102.426 15.7433C103.31 14.1954 103.31 12.2056 102.867 9.99441C102.425 7.78324 101.319 6.23495 99.9922 4.90825C98.8314 4.2449 97.5473 3.95482 96.1377 4.03779ZM140.015 4.46645L142.226 4.90829C143.331 5.12941 143.995 5.35179 144.216 5.35179C144.658 5.35179 144.878 5.79344 145.099 6.01455C145.321 6.23567 145.322 6.67693 145.322 7.11917C145.322 7.5614 145.1 8.00431 144.879 8.22539C144.657 8.44646 144.437 8.66724 143.995 8.66724C143.553 8.66723 142.667 8.66743 141.341 8.44631L139.13 8.22539L140.015 4.46645ZM96.5378 6.78778C97.0629 6.84306 97.5596 7.01005 98.0018 7.34173C98.8863 8.00508 99.5495 9.1094 99.9917 10.6572C100.434 12.4261 100.213 13.7543 99.7708 14.6387C99.3286 15.5232 98.4446 16.185 97.339 16.4061C96.2334 16.8484 95.1272 16.6277 94.2428 15.9643C93.3583 15.3009 92.6951 14.195 92.2529 12.6472C92.0317 10.8782 92.0315 9.55177 92.4738 8.6673C92.916 7.78283 93.8016 7.11936 94.9072 6.89828C95.46 6.78773 96.0127 6.73249 96.5378 6.78778ZM79.8715 9.1108L69.4787 13.7535L70.3624 15.9643L74.1213 14.1953L78.9866 25.0304L81.8618 23.9242L76.9966 13.0907L80.7555 11.3217L79.8715 9.1108ZM157.262 9.33172L157.704 14.8597L153.945 13.7535L157.262 9.33172ZM167.876 9.33172L162.127 22.3776L164.559 23.2613L168.318 14.8597L169.866 25.6931L172.519 27.0203L178.268 13.9745L175.836 12.8698L172.077 21.4925L170.529 10.4363L167.876 9.33172ZM66.3791 15.3016L64.1682 16.6288L69.0335 24.8095L59.0822 19.5024L56.6503 20.8296L63.9473 33.2112L66.1582 31.8857L61.5155 23.9243L71.244 29.2313L73.6758 27.6832L66.3791 15.3016ZM182.825 17.0146C182.466 17.0698 182.135 17.181 181.803 17.2915C181.14 17.5126 180.697 17.9554 180.255 18.6187C179.592 19.5032 179.371 20.6077 179.813 21.7133C180.034 22.5978 180.698 23.483 181.803 24.5885C182.467 25.473 183.13 26.1365 183.351 26.3576C183.794 26.7998 184.014 27.241 184.014 27.4622C184.014 27.6833 184.014 28.1264 183.793 28.3475C183.572 28.7897 182.908 29.2312 182.466 29.2312C182.024 29.2312 181.361 29.0107 180.476 28.5684C179.592 28.1262 179.151 27.4625 178.93 27.0203C178.709 26.5781 178.708 25.6939 179.151 24.8095L176.717 23.7032C176.054 25.251 175.833 26.5777 176.717 27.4622C177.159 28.5677 178.045 29.674 179.592 30.5584C180.698 31.2218 181.582 31.6647 182.466 31.6647C183.35 31.6647 184.236 31.6634 184.899 31.2212C185.563 31 186.226 30.338 186.668 29.6747C187.111 29.0114 187.331 28.1256 187.331 27.4622C187.331 26.7989 187.111 26.1356 186.668 25.4723C186.226 24.8089 185.563 24.1461 184.458 23.0405C183.352 21.9349 182.91 21.2719 182.689 20.8296C182.467 20.6085 182.467 20.1654 182.689 19.9443C182.91 19.7232 183.13 19.5025 183.572 19.5025C184.236 19.5025 184.899 19.723 185.562 20.1652C186.226 20.6075 186.668 21.0502 186.889 21.4924C186.889 21.9347 186.89 22.5982 186.669 23.2615L189.1 24.5887C189.764 23.4831 189.984 22.3772 189.542 21.2715C189.1 20.1659 188.216 19.0598 186.669 18.1753C185.784 17.512 184.899 17.2918 184.014 17.0707C183.572 16.9601 183.185 16.9593 182.825 17.0146ZM53.3374 23.4823L44.9358 29.8957L53.5585 41.1723L62.6243 34.7589L61.0762 32.769L54.6645 37.6342L52.2327 34.538L57.9816 30.1162L56.4335 28.1263L50.6845 32.5481L48.6946 30.1162L54.8854 25.4719L53.3374 23.4823ZM194.407 23.4823L185.782 34.7589L187.993 36.5279L191.31 32.3271L192.858 33.4333C193.743 34.3178 194.627 34.9812 195.29 35.2023C195.733 35.4234 196.175 35.6442 196.838 35.6442C197.281 35.6442 197.944 35.6445 198.607 35.2023C199.271 34.7601 199.934 34.3176 200.376 33.6542C201.04 32.7697 201.483 31.8843 201.483 30.9999C201.483 30.1154 201.26 29.2314 200.818 28.568C200.376 28.1258 199.492 27.4627 198.166 26.3572L194.407 23.4823ZM195.29 27.2412L196.618 27.9057C197.502 28.569 197.945 29.0101 198.166 29.2312C198.387 29.4523 198.608 29.8952 198.608 30.3374C198.608 30.7796 198.387 31.2224 198.166 31.6646C197.945 31.8857 197.723 32.1063 197.28 32.3274C196.838 32.5485 196.618 32.3274 196.176 32.3274C195.734 32.3274 195.07 31.8845 194.186 31.2212L192.859 30.3375L195.29 27.2412ZM41.6184 32.7692L38.5222 35.8654L43.6083 44.4881L34.984 39.4037L31.8894 42.4982L42.0602 52.4495L43.8292 50.4596L35.8694 42.7207L45.8191 48.6906L47.809 46.7007L41.8391 36.7493L49.7989 44.7107L51.7889 42.7208L41.6184 32.7692ZM205.909 34.7591C205.246 34.7591 204.362 34.9815 203.699 35.2026C202.593 35.6449 201.708 36.3079 200.602 37.4135C199.055 38.9612 198.17 40.7293 198.392 42.277C198.392 44.046 199.055 45.5944 200.602 47.1423C201.929 48.6901 203.699 49.3531 205.468 49.3531C207.237 49.3531 209.004 48.4692 210.552 46.9213C212.1 45.3735 212.986 43.6041 212.986 41.8351C212.986 40.0662 212.323 38.5177 210.775 36.9699C209.89 36.0854 209.005 35.6448 208.12 35.2025C207.457 34.9814 206.794 34.7591 205.909 34.7591ZM206.922 37.5899C207.678 37.6625 208.342 38.0757 209.006 38.739C209.89 39.6235 210.11 40.5087 210.11 41.6143C210.11 42.72 209.447 43.8258 208.341 44.9315C207.236 46.037 206.131 46.7005 205.026 46.7005C203.92 46.7005 203.035 46.4787 202.151 45.5942C201.266 44.7097 201.044 43.8261 201.044 42.7205C201.044 41.615 201.708 40.509 202.813 39.4034C203.919 38.2979 205.025 37.6344 206.13 37.6344C206.407 37.5791 206.67 37.5657 206.922 37.5899ZM29.4624 44.488L22.6072 53.5538L24.5971 55.1019L27.2499 51.7848L36.758 59.0818L38.3062 56.65L28.798 49.353L31.4523 46.0358L29.4624 44.488ZM217.853 44.9315L206.577 53.5542L208.789 55.7667L213.432 52.2286L213.874 52.6705C214.095 53.3338 214.538 53.5554 214.538 53.9977V55.1023C214.538 55.5445 214.316 56.2074 213.874 57.5341L212.769 61.0722L214.759 63.7265L215.863 60.6303C216.306 59.5246 216.749 58.6409 216.749 57.9775V55.9876C217.633 56.8721 218.517 57.534 219.402 57.534C220.286 57.534 221.171 57.3137 222.056 56.6503C222.719 56.2081 223.16 55.5446 223.381 54.8813C223.602 53.9968 223.602 53.3338 223.381 52.6705C223.16 52.0072 222.497 50.9008 221.612 49.7952L217.853 44.9315ZM217.632 48.6904L218.959 50.4594C219.844 51.5651 220.065 52.0074 220.287 52.2285C220.508 52.4495 220.508 52.8908 220.508 53.3331C220.508 53.7753 220.285 54.2182 219.843 54.4394C219.401 54.6605 219.181 54.8812 218.739 54.8812C218.517 54.8812 218.074 54.8814 217.853 54.6603C217.411 54.4392 216.969 53.7759 216.084 52.6704L214.759 50.9013L217.632 48.6904ZM226.478 56.8711L224.488 58.1983L226.699 61.7364L216.528 67.7062L217.853 70.359L228.026 64.3891L230.237 67.9271L232.227 66.5999L226.478 56.8711ZM22.6059 57.7564C21.9425 57.7564 21.0582 57.977 20.6159 58.4192C20.1737 58.8614 19.5105 59.7452 18.626 61.0719L15.5298 66.379L27.6919 73.676L29.0174 71.2442L23.9329 68.1479L24.3747 67.7061C24.817 67.2638 25.0373 66.8209 25.2585 66.5999C25.4796 66.3788 25.7016 66.158 26.1438 66.158C26.586 66.158 27.4698 65.9371 28.7965 65.9371L32.5554 65.7162L34.3245 62.8409H31.0073C29.6806 62.8409 28.7971 62.8407 28.1337 63.0619C27.6915 63.0619 27.0281 63.284 26.3647 63.7263C26.8069 62.6207 26.8067 61.5145 26.5856 60.63C26.3645 59.7456 25.701 58.8614 24.8166 58.4192C24.1532 57.977 23.4903 57.7564 22.6059 57.7564ZM22.3849 60.6301C22.6061 60.6301 23.0473 60.6299 23.4895 60.851C23.7107 61.0721 23.9329 61.5152 24.154 61.7363V62.8409C24.154 63.062 23.7111 63.9479 23.0477 65.0534L21.9414 66.8209L19.0677 65.0534L20.1739 63.0618C20.8373 62.1774 21.0574 61.5139 21.2786 61.2928C21.7208 60.8506 21.9427 60.6301 22.3849 60.6301ZM234.436 71.4652L219.18 72.3489L220.507 75.2241L224.045 75.0032L226.477 80.0894L224.045 82.5211L225.37 85.3948L235.763 74.3385L234.436 71.4652ZM11.5549 74.1179L10.4486 76.9932L21.2837 87.8283L22.3899 84.953L19.9565 82.5212L22.169 77.2142L25.7071 77.4351L27.0326 74.5614L11.5549 74.1179ZM232.233 74.3388L228.253 78.3204L226.705 74.7823L232.233 74.3388ZM13.9944 76.9932L19.7433 77.2141L18.1951 80.7522L13.9944 76.9932ZM238.429 79.8668L236.218 80.5312L237.545 84.5111L226.269 88.27L227.153 91.1437L238.429 87.3847L239.756 91.3663L241.967 90.7019L238.429 79.8668ZM10.7023 83.6818C10.2324 83.6818 9.791 83.7378 9.34877 83.8483C8.4643 84.0694 7.80107 84.7315 7.35883 85.3948C7.13773 86.0581 6.69481 86.943 6.25261 88.7119L4.92541 93.1353L18.6356 97.3361L19.5193 94.6818L14.2122 92.6918L14.6557 90.9228C15.098 89.8172 15.3185 88.7126 15.3185 88.0492C15.3185 87.607 15.3187 87.1645 15.0976 86.5011C15.0976 86.0588 14.6545 85.3952 14.2123 84.953C13.77 84.5107 13.1068 84.0695 12.2223 83.8483C11.6696 83.7378 11.1722 83.6818 10.7023 83.6818ZM10.8969 86.5571C11.118 86.5571 11.3385 86.6114 11.5596 86.722C11.7807 86.9431 12.2222 87.1637 12.4433 87.3848C12.6645 87.827 12.8868 88.0488 12.8868 88.4911C12.8868 88.9333 12.6645 89.5964 12.4433 90.7019L12.0015 92.25L8.02164 91.1437L8.6844 89.5973C8.90552 88.4917 9.1277 87.8284 9.34882 87.6074C9.56994 87.1651 9.79026 86.9431 10.2325 86.7221C10.4536 86.6115 10.6757 86.5571 10.8969 86.5571ZM242.625 92.9128L228.693 96.2299L229.358 99.1052L243.287 95.788L242.625 92.9128ZM4.04261 97.1152L2.27358 107.507L16.2033 109.941L17.9723 99.5478L15.5404 99.106L14.2132 106.845L10.4543 106.182L11.7815 99.106L9.57066 98.6642L8.24345 105.739L5.14722 105.076L6.47442 97.5579L4.04261 97.1152ZM238.843 99.6031C238.207 99.6031 237.544 99.6574 236.881 99.768C234.67 99.9891 233.342 100.652 232.237 102.2C231.131 103.747 230.909 105.517 231.13 107.507C231.352 109.497 232.237 111.046 233.785 112.151C235.112 113.257 237.102 113.698 239.313 113.256C241.524 113.035 243.293 112.151 244.399 110.603C245.505 109.055 245.725 107.286 245.504 105.296C245.282 104.19 244.841 103.307 244.399 102.422C243.957 101.98 243.514 101.316 242.851 100.874C242.187 100.211 241.303 99.989 240.64 99.768C240.087 99.6574 239.479 99.6031 238.843 99.6031ZM239.59 102.615C240.198 102.698 240.64 102.864 240.861 103.085C241.746 103.748 242.188 104.632 242.409 105.738C242.63 107.065 242.408 107.95 241.745 108.834C240.86 109.497 239.754 110.161 238.207 110.382C236.659 110.824 235.332 110.604 234.448 109.94C233.563 109.277 232.9 108.613 232.9 107.286C232.9 105.959 233.122 105.074 233.785 104.19C234.669 103.526 235.775 102.864 237.323 102.643C238.207 102.533 238.982 102.532 239.59 102.615ZM7.08546 111.653C6.53267 111.709 6.03562 111.82 5.59339 111.93C4.70892 112.372 3.82327 112.592 3.15996 113.256C2.49661 113.698 2.05552 114.361 1.83444 115.246C1.61333 115.909 1.39095 116.794 1.39095 117.9L1.17003 123.207L15.5429 123.87L15.7638 118.563C15.7638 117.457 15.764 116.573 15.5429 115.91C15.3217 115.026 14.8788 114.362 14.4366 113.92C13.7732 113.257 13.1104 112.814 12.0047 112.372C11.1203 111.93 10.0157 111.708 8.91018 111.708C8.24683 111.597 7.63828 111.598 7.08546 111.653ZM8.68793 114.583C9.79356 114.804 10.679 114.804 11.3423 115.025C12.0056 115.246 12.4483 115.689 12.6695 115.91C12.8906 116.131 13.1113 116.572 13.1113 117.015V120.995L3.60316 120.553L3.82408 119.227C3.82408 117.9 3.82389 117.236 4.045 116.794C4.045 116.352 4.48665 115.689 4.70777 115.468C4.92889 115.247 5.3716 115.025 6.03498 114.804C6.69835 114.583 7.58231 114.583 8.68793 114.583ZM246.173 116.131L232.02 116.352V119.005L241.307 118.784L232.02 124.754V127.629L246.173 127.408V124.754L236.663 124.976L246.173 119.005V116.131ZM17.7538 148.856L10.9003 150.846C9.35252 151.288 8.24655 151.731 7.58316 152.173C7.14092 152.615 6.47711 152.837 6.25595 153.5C6.03479 154.164 5.59317 154.827 5.59317 155.49C5.59317 156.154 5.59278 157.26 6.03501 158.586C6.25613 159.692 6.69905 160.355 7.14133 161.018C7.5836 161.682 8.02444 162.124 8.68775 162.345C9.35106 162.567 10.0144 162.787 10.6777 162.566C11.341 162.345 12.6679 162.123 14.2157 161.681L21.2918 159.47L20.4081 156.817L12.8902 159.028C11.7846 159.471 10.899 159.691 10.4568 159.691C10.0145 159.691 9.57349 159.47 9.13126 159.249C8.68902 159.028 8.24611 158.586 8.02495 157.701C7.80383 156.817 7.80383 156.153 8.02495 155.711C8.24607 155.048 8.68898 154.605 9.13126 154.384C9.35238 154.384 10.2365 154.163 11.3421 153.721L18.6391 151.51L17.7538 148.856ZM243.075 155.269L227.818 156.153L226.933 159.028L238.653 168.757L239.537 165.881L236.884 163.671L238.653 158.364L242.19 158.143L243.075 155.269ZM235.999 158.586L234.894 162.345L230.471 158.807L235.999 158.586ZM21.9551 162.566L8.91096 168.315L10.2365 170.747L18.6398 166.988L12.4474 176.054L13.5537 178.707L26.3784 172.958L25.2721 170.526L16.6494 174.285L23.0611 165.219L21.9551 162.566ZM226.545 166.711C226.047 166.766 225.603 166.877 225.161 166.988C223.613 167.43 222.509 168.536 221.846 170.084C221.182 172.074 220.96 173.622 221.623 175.391C222.287 176.939 223.615 178.266 225.826 179.371C227.816 180.256 229.585 180.476 231.354 180.034C233.123 179.592 234.228 178.486 235.113 176.717C235.776 175.169 235.996 174.064 235.775 172.737C235.554 171.631 234.891 170.525 233.564 169.42L231.575 171.632C232.459 172.296 232.901 172.959 233.564 173.843C233.786 174.507 233.565 175.17 233.344 175.833C232.901 176.718 232.015 177.381 231.131 177.602C230.025 177.823 228.699 177.601 227.151 176.717C225.603 176.053 224.72 175.169 224.278 174.285C223.835 173.401 223.835 172.294 224.278 171.41C224.499 170.746 224.941 170.084 225.605 169.863C226.268 169.642 226.931 169.421 227.595 169.642L228.257 166.767C227.594 166.657 227.042 166.656 226.545 166.711ZM28.1425 175.833L15.7593 182.91L17.3074 185.341L29.4695 178.265L28.1425 175.833ZM217.859 178.707L216.312 181.141L228.472 188.438L230.021 186.004L217.859 178.707ZM30.5736 180.476L28.5837 181.803L31.0155 185.341L21.287 191.974L23.056 194.407L32.7845 187.773L34.9954 191.09L36.987 189.763L30.5736 180.476ZM214.651 185.534C214.319 185.617 213.987 185.783 213.655 186.004C213.213 186.446 212.329 187.111 211.444 188.438L207.906 193.301L219.404 201.704L220.952 199.715L216.087 196.176L216.53 195.733C216.751 195.07 217.193 194.85 217.414 194.628C217.635 194.407 217.857 194.187 218.299 194.187H220.952L224.711 194.407L226.701 191.753L223.384 191.532H220.51C220.068 191.532 219.404 191.753 218.741 191.974C219.404 190.868 219.625 189.764 219.404 188.879C219.183 187.774 218.74 187.111 217.856 186.448C217.192 186.005 216.308 185.562 215.645 185.562C215.313 185.452 214.983 185.451 214.651 185.534ZM215.203 187.994C215.645 187.994 215.867 188.216 216.309 188.438C216.53 188.659 216.972 188.879 216.972 189.321C216.972 189.764 217.193 189.985 216.972 190.428C216.972 190.87 216.529 191.533 215.645 192.638L214.318 194.407L211.444 191.753L212.771 189.984C213.435 189.1 213.876 188.659 214.097 188.438C214.539 188.217 214.761 187.994 215.203 187.994ZM38.3094 191.532L27.4743 200.819L34.7713 208.779L36.5403 207.233L31.2332 201.261L34.1084 198.608L38.7511 203.915L40.5201 202.367L35.8775 197.06L38.3093 195.07L43.3955 200.819L45.1645 199.492L38.3094 191.532ZM206.137 195.291L198.84 202.809L209.013 212.76L216.752 205.242L214.983 203.473L209.455 209.222L206.579 206.568L211.445 201.484L209.676 199.715L204.81 204.799L202.6 202.588L207.907 197.06L206.137 195.291ZM47.1558 201.261L37.4273 212.096L41.4071 215.634C42.2916 216.519 42.9547 216.961 43.618 217.182C44.2813 217.403 45.1655 217.624 45.8288 217.624C46.7133 217.624 47.8196 217.183 48.704 216.74C49.5885 216.298 50.2514 215.635 51.1359 214.75C52.0203 213.645 52.6836 212.76 53.1258 211.875C53.3469 210.991 53.5676 210.107 53.5676 209.222C53.5676 208.338 53.3471 207.452 52.9049 206.789C52.6837 206.347 52.0203 205.684 51.1359 204.799L47.1558 201.261ZM196.852 204.799L193.535 207.453L197.294 216.74L189.334 210.77L186.017 213.423L194.862 224.48L197.073 222.931L189.997 214.086L199.284 221.162L201.497 219.393L196.631 208.779L203.708 217.624L205.697 215.855L196.852 204.799ZM47.5947 205.02L48.701 205.905C49.5855 206.79 50.2489 207.232 50.47 207.674C50.6911 208.117 50.6907 208.559 50.9119 209.001C51.133 209.444 50.9121 209.885 50.6909 210.548C50.4698 210.99 49.8062 211.653 49.1428 212.538C48.4795 213.422 47.8162 213.865 47.1529 214.307C46.4896 214.528 46.047 214.75 45.6048 214.75C45.1626 214.971 44.7198 214.751 44.2776 214.529C44.0565 214.308 43.6154 213.865 42.9521 213.423L41.4039 212.096L47.5947 205.02ZM63.8752 215.58C63.5159 215.635 63.1831 215.745 62.8514 215.855C62.1881 216.076 61.7472 216.519 61.305 217.182C60.6416 218.067 60.4192 219.173 60.8615 220.279C61.0826 221.163 61.7459 222.047 62.8514 223.152C63.5148 224.037 64.1784 224.7 64.3995 224.921C64.8418 225.364 65.0639 225.806 65.0639 226.028C65.0639 226.249 65.0623 226.69 64.8414 226.911C64.6202 227.353 63.9581 227.797 63.5158 227.797C63.0736 227.797 62.4104 227.574 61.5259 227.132C60.6415 226.69 60.199 226.026 59.9778 225.584C59.7567 225.142 59.7565 224.258 60.1987 223.373L57.7669 222.269C57.1035 223.816 57.3247 224.48 57.7669 225.807C58.2091 227.133 59.0927 228.238 60.6405 229.122C61.7462 229.785 62.6313 230.007 63.5158 230.228C64.4002 230.228 65.2842 230.229 65.9476 229.787C66.6109 229.565 67.2744 228.902 67.7166 228.238C68.1589 227.575 68.3794 226.691 68.3794 226.028C68.3794 225.364 68.1589 224.701 67.7166 224.038C67.2744 223.374 66.6113 222.71 65.5058 221.604C64.4002 220.499 63.9578 219.836 63.7368 219.393C63.5157 219.172 63.5157 218.731 63.7368 218.51C63.9579 218.289 64.1782 218.066 64.6205 218.066C65.2838 218.066 65.9471 218.288 66.6104 218.731C67.2737 219.173 67.9376 219.616 67.9376 220.058C67.9376 220.5 67.9378 221.162 67.7167 221.825L70.1485 223.152C70.8119 222.047 71.0343 220.941 70.592 219.835C70.1498 218.73 69.2645 217.625 67.7168 216.741C66.8323 216.077 65.9485 215.856 65.064 215.634C64.6218 215.524 64.2346 215.525 63.8752 215.58ZM180.263 216.961L177.61 218.51L180.042 233.545L182.696 231.997L182.032 228.68L186.897 225.806L189.549 228.017L192.204 226.469L180.263 216.961ZM73.9034 220.72L73.0197 222.931L76.7786 224.7L71.9134 235.535L74.7886 236.64L79.6522 225.807L83.4111 227.576L84.2964 225.363L73.9034 220.72ZM180.482 220.72L184.905 224.258L181.588 226.248L180.482 220.72ZM166.552 224.258L157.486 227.576L162.352 240.843L165.225 239.957L163.014 234.208L168.542 232.218L167.659 230.008L162.131 231.998L161.024 228.901L167.436 226.469L166.552 224.258ZM88.7185 226.69L78.99 238.63L81.8653 239.516L84.0761 236.863L89.6041 238.63L89.825 242.168L92.6987 243.054L91.594 227.576L88.7185 226.69ZM149.871 229.137C149.401 229.164 148.917 229.232 148.42 229.343C147.314 229.785 146.431 230.007 145.546 230.67C144.883 231.112 144.44 231.776 143.998 232.439C143.556 233.103 143.334 233.766 143.113 234.65C142.892 235.756 143.113 237.082 143.334 238.409C143.776 240.62 144.882 242.169 146.43 243.053C147.978 243.938 149.747 244.158 151.737 243.716C153.727 243.274 155.274 242.169 156.159 240.622C157.043 239.074 157.265 237.082 156.823 234.871C156.16 232.66 155.275 230.892 153.727 230.007C152.566 229.344 151.28 229.054 149.871 229.137ZM96.2363 229.343L95.7944 231.776L99.9953 232.66L97.5634 244.158L100.216 244.601L102.65 233.102L106.85 233.987L107.292 231.555L96.2363 229.343ZM89.1602 230.67L89.3827 236.198L85.6238 235.094L89.1602 230.67ZM109.282 231.776L108.178 245.927L119.011 246.813L119.234 244.381L111.272 243.716L111.493 239.957L118.569 240.622L118.79 238.188L111.716 237.526L111.937 234.429L119.676 235.094L119.896 232.66L109.282 231.776ZM149.909 232.007C150.728 231.914 151.516 232.163 152.179 232.66C153.064 233.324 153.506 234.429 153.948 235.977C154.39 237.746 154.17 239.073 153.727 239.957C153.285 240.842 152.401 241.505 151.295 241.726C150.19 241.947 149.084 241.727 148.199 241.063C147.315 240.4 146.652 239.294 146.209 237.746C145.767 235.977 145.988 234.872 146.651 233.987C147.093 233.103 147.979 232.439 149.085 232.218C149.361 232.108 149.636 232.038 149.909 232.007ZM127.856 232.218C126.751 232.218 125.646 232.439 124.983 232.881C124.098 233.323 123.435 233.766 123.214 234.429C122.993 235.093 122.77 235.756 122.77 236.419C122.77 237.525 123.213 238.631 124.097 239.294C124.761 239.958 125.867 240.4 127.415 240.622C128.741 240.843 129.404 241.063 129.846 241.063C130.289 241.285 130.732 241.505 130.953 241.726C130.953 241.947 131.174 242.169 131.174 242.611C131.174 243.054 130.953 243.495 130.511 243.937C130.069 244.379 129.405 244.601 128.521 244.601C127.636 244.601 126.751 244.379 126.308 243.937C125.866 243.495 125.425 242.832 125.204 241.947L122.328 242.389C122.55 243.937 123.213 245.264 124.097 245.927C125.203 246.811 126.529 247.033 128.298 247.033C129.625 247.033 130.51 246.813 131.395 246.371C132.058 245.928 132.721 245.265 133.164 244.601C133.606 243.938 133.826 243.273 133.826 242.389C133.826 241.504 133.606 240.841 133.164 240.178C132.942 239.736 132.279 239.074 131.615 238.853C130.952 238.632 129.848 238.188 128.521 237.967C127.194 237.746 126.309 237.305 125.867 237.084C125.645 236.862 125.425 236.64 125.425 236.198C125.425 235.756 125.645 235.536 125.867 235.315C126.309 234.872 126.972 234.65 127.856 234.65C128.52 234.65 129.183 234.873 129.626 235.094C130.068 235.315 130.29 235.977 130.511 236.64L133.384 236.419C133.384 235.092 132.721 233.988 131.836 233.325C130.952 232.44 129.625 232.218 127.856 232.218Z" fill="white"/>
<path d="M123.654 24.8091C102.648 24.8091 83.4101 31.221 67.2688 42.2765C72.7967 40.5076 78.9869 39.6238 85.1785 39.6238C123.874 39.6238 144.438 63.0625 144.438 96.894C144.438 99.3262 144.218 101.536 143.996 103.747C143.554 106.622 143.332 109.718 143.332 112.813C143.332 132.051 161.021 149.74 182.249 149.74C208.12 149.74 228.021 114.583 215.417 86.5004C200.602 50.237 165.225 24.8091 123.654 24.8091ZM83.2725 43.8533C69.3141 44.2679 54.6644 50.5689 45.5986 63.0621C21.7176 94.0185 17.2952 137.357 38.0807 173.178C48.4735 191.309 63.9513 204.798 81.4195 213.201C77.2183 209.221 73.2382 204.355 70.1429 199.048C50.6842 165.439 60.8567 136.031 90.0439 119.226C92.0339 118.121 94.2445 117.015 96.2346 116.13C98.888 115.025 101.764 113.698 104.417 112.15C121.001 102.642 127.634 78.5401 116.799 59.9669C110.497 48.9115 97.2309 43.4389 83.2725 43.8533ZM222.274 115.69C220.947 121.439 218.735 126.966 215.639 132.494C196.402 166.104 165.889 172.074 136.701 155.048C134.711 153.943 132.721 152.616 130.952 151.289C128.52 149.521 126.087 147.751 123.434 146.203C106.85 136.695 82.7473 143.107 72.1342 161.46C59.0883 183.793 79.6532 218.728 110.168 221.825C148.863 227.131 188.664 209 209.453 173.179C219.846 155.047 224.047 134.927 222.278 115.69L222.274 115.69Z" fill="#002678"/>
</g>
<defs>
<clipPath id="clip0_111_10">
<rect width="247" height="247.88" fill="white"/>
</clipPath>
</defs>
</svg>
