<svg width="27" height="27" viewBox="0 0 27 27" fill="none" xmlns="http://www.w3.org/2000/svg">
<g clip-path="url(#clip0_66_246)">
<path d="M21.3817 3.30312H20.29V1.11987H18.1068V3.30312H9.37378V1.11987H7.19053V3.30312H6.0989C4.89811 3.30312 3.91565 4.28559 3.91565 5.48638V20.7691C3.91565 21.9699 4.89811 22.9524 6.0989 22.9524H21.3817C22.5824 22.9524 23.5649 21.9699 23.5649 20.7691V5.48638C23.5649 4.28559 22.5824 3.30312 21.3817 3.30312ZM21.3817 20.7691H6.0989V9.85288H21.3817V20.7691ZM6.0989 7.66963V5.48638H21.3817V7.66963H6.0989ZM12.1683 19.088L18.6417 12.6147L17.4846 11.4576L12.1683 16.7738L9.86501 14.4705L8.70789 15.6276L12.1683 19.088Z" fill="black"/>
</g>
<defs>
<clipPath id="clip0_66_246">
<rect width="26.199" height="26.199" fill="white" transform="translate(0.640503 0.027832)"/>
</clipPath>
</defs>
</svg>
