<svg width="28" height="20" viewBox="0 0 28 20" fill="none" xmlns="http://www.w3.org/2000/svg">
<path d="M19.8376 11.4133C21.5501 12.5758 22.7501 14.1508 22.7501 16.2508V20.0008H27.7501V16.2508C27.7501 13.5258 23.2876 11.9133 19.8376 11.4133Z" fill="#4F2CFF"/>
<path d="M17.7506 10.0007C20.5131 10.0007 22.7506 7.76323 22.7506 5.00073C22.7506 2.23823 20.5131 0.000732422 17.7506 0.000732422C17.1631 0.000732422 16.6131 0.125732 16.0881 0.300732C17.1256 1.58823 17.7506 3.22573 17.7506 5.00073C17.7506 6.77573 17.1256 8.41323 16.0881 9.70073C16.6131 9.87573 17.1631 10.0007 17.7506 10.0007Z" fill="#4F2CFF"/>
<path d="M10.2501 10.0007C13.0126 10.0007 15.2501 7.76323 15.2501 5.00073C15.2501 2.23823 13.0126 0.000732422 10.2501 0.000732422C7.48763 0.000732422 5.25013 2.23823 5.25013 5.00073C5.25013 7.76323 7.48763 10.0007 10.2501 10.0007ZM10.2501 2.50073C11.6251 2.50073 12.7501 3.62573 12.7501 5.00073C12.7501 6.37573 11.6251 7.50073 10.2501 7.50073C8.87513 7.50073 7.75013 6.37573 7.75013 5.00073C7.75013 3.62573 8.87513 2.50073 10.2501 2.50073Z" fill="#4F2CFF"/>
<path d="M10.2503 11.2512C6.91279 11.2512 0.250286 12.9262 0.250286 16.2512V20.0012H20.2503V16.2512C20.2503 12.9262 13.5878 11.2512 10.2503 11.2512ZM17.7503 17.5012H2.75029V16.2637C3.00029 15.3637 6.87529 13.7512 10.2503 13.7512C13.6253 13.7512 17.5003 15.3637 17.7503 16.2512V17.5012Z" fill="#4F2CFF"/>
</svg>
