<svg width="30" height="30" viewBox="0 0 30 30" fill="none" xmlns="http://www.w3.org/2000/svg">
<g clip-path="url(#clip0_66_233)">
<path d="M20.8376 16.4133C22.5501 17.5758 23.7501 19.1508 23.7501 21.2508V25.0008H28.7501V21.2508C28.7501 18.5258 24.2876 16.9133 20.8376 16.4133Z" fill="black"/>
<path d="M18.7505 15.0007C21.513 15.0007 23.7505 12.7632 23.7505 10.0007C23.7505 7.23823 21.513 5.00073 18.7505 5.00073C18.163 5.00073 17.613 5.12573 17.088 5.30073C18.1255 6.58823 18.7505 8.22573 18.7505 10.0007C18.7505 11.7757 18.1255 13.4132 17.088 14.7007C17.613 14.8757 18.163 15.0007 18.7505 15.0007Z" fill="black"/>
<path d="M11.2501 15.0007C14.0126 15.0007 16.2501 12.7632 16.2501 10.0007C16.2501 7.23823 14.0126 5.00073 11.2501 5.00073C8.48762 5.00073 6.25012 7.23823 6.25012 10.0007C6.25012 12.7632 8.48762 15.0007 11.2501 15.0007ZM11.2501 7.50073C12.6251 7.50073 13.7501 8.62573 13.7501 10.0007C13.7501 11.3757 12.6251 12.5007 11.2501 12.5007C9.87512 12.5007 8.75012 11.3757 8.75012 10.0007C8.75012 8.62573 9.87512 7.50073 11.2501 7.50073Z" fill="black"/>
<path d="M11.2502 16.2512C7.91274 16.2512 1.25024 17.9262 1.25024 21.2512V25.0012H21.2502V21.2512C21.2502 17.9262 14.5877 16.2512 11.2502 16.2512ZM18.7502 22.5012H3.75024V21.2637C4.00024 20.3637 7.87524 18.7512 11.2502 18.7512C14.6252 18.7512 18.5002 20.3637 18.7502 21.2512V22.5012Z" fill="black"/>
</g>
<defs>
<clipPath id="clip0_66_233">
<rect width="30" height="30" fill="white"/>
</clipPath>
</defs>
</svg>
