<svg width="27" height="27" viewBox="0 0 27 27" fill="none" xmlns="http://www.w3.org/2000/svg">
<g clip-path="url(#clip0_55_171)">
<path d="M21.851 14.7131C21.8946 14.3638 21.9274 14.0145 21.9274 13.6433C21.9274 13.2722 21.8946 12.9228 21.851 12.5735L24.1543 10.7723C24.3617 10.6086 24.4163 10.3138 24.2853 10.0737L22.102 6.29667C22.0038 6.12201 21.8182 6.02376 21.6217 6.02376C21.5562 6.02376 21.4907 6.03468 21.4361 6.05651L18.718 7.14813C18.1503 6.71148 17.539 6.35125 16.8731 6.07834L16.4583 3.18553C16.4256 2.92354 16.1963 2.72705 15.9234 2.72705H11.5569C11.284 2.72705 11.0548 2.92354 11.022 3.18553L10.6072 6.07834C9.94132 6.35125 9.33001 6.7224 8.76236 7.14813L6.04422 6.05651C5.97872 6.03468 5.91322 6.02376 5.84772 6.02376C5.66215 6.02376 5.47657 6.12201 5.37832 6.29667L3.19507 10.0737C3.05316 10.3138 3.11866 10.6086 3.32607 10.7723L5.6294 12.5735C5.58573 12.9228 5.55298 13.2831 5.55298 13.6433C5.55298 14.0035 5.58573 14.3638 5.6294 14.7131L3.32607 16.5143C3.11866 16.678 3.06408 16.9728 3.19507 17.2129L5.37832 20.9899C5.47657 21.1646 5.66215 21.2629 5.85864 21.2629C5.92414 21.2629 5.98963 21.2519 6.04422 21.2301L8.76236 20.1385C9.33001 20.5751 9.94132 20.9354 10.6072 21.2083L11.022 24.1011C11.0548 24.3631 11.284 24.5596 11.5569 24.5596H15.9234C16.1963 24.5596 16.4256 24.3631 16.4583 24.1011L16.8731 21.2083C17.539 20.9354 18.1503 20.5642 18.718 20.1385L21.4361 21.2301C21.5016 21.2519 21.5671 21.2629 21.6326 21.2629C21.8182 21.2629 22.0038 21.1646 22.102 20.9899L24.2853 17.2129C24.4163 16.9728 24.3617 16.678 24.1543 16.5143L21.851 14.7131ZM19.6895 12.8464C19.7332 13.1848 19.7441 13.4141 19.7441 13.6433C19.7441 13.8725 19.7223 14.1127 19.6895 14.4402L19.5367 15.6737L20.5083 16.4379L21.6872 17.3548L20.9231 18.6757L19.5367 18.119L18.4014 17.6605L17.419 18.4028C16.9496 18.7521 16.502 19.0141 16.0544 19.1997L14.8973 19.6691L14.7226 20.9026L14.5043 22.3763H12.976L12.7686 20.9026L12.594 19.6691L11.4368 19.1997C10.9674 19.0032 10.5308 18.7521 10.0941 18.4246L9.10077 17.6605L7.94364 18.1299L6.55728 18.6866L5.79314 17.3657L6.9721 16.4488L7.94364 15.6846L7.79082 14.4511C7.75807 14.1127 7.73623 13.8616 7.73623 13.6433C7.73623 13.425 7.75807 13.1739 7.79082 12.8464L7.94364 11.6129L6.9721 10.8487L5.79314 9.93178L6.55728 8.61091L7.94364 9.16764L9.07893 9.62612L10.0614 8.88382C10.5308 8.5345 10.9784 8.27251 11.4259 8.08693L12.5831 7.61753L12.7577 6.384L12.976 4.9103H14.4934L14.7008 6.384L14.8755 7.61753L16.0326 8.08693C16.502 8.28342 16.9386 8.5345 17.3753 8.86199L18.3687 9.62612L19.5258 9.15673L20.9122 8.6L21.6763 9.92086L20.5083 10.8487L19.5367 11.6129L19.6895 12.8464ZM13.7402 9.2768C11.3277 9.2768 9.37367 11.2308 9.37367 13.6433C9.37367 16.0558 11.3277 18.0098 13.7402 18.0098C16.1527 18.0098 18.1067 16.0558 18.1067 13.6433C18.1067 11.2308 16.1527 9.2768 13.7402 9.2768ZM13.7402 15.8266C12.5394 15.8266 11.5569 14.8441 11.5569 13.6433C11.5569 12.4425 12.5394 11.4601 13.7402 11.4601C14.941 11.4601 15.9234 12.4425 15.9234 13.6433C15.9234 14.8441 14.941 15.8266 13.7402 15.8266Z" fill="black"/>
</g>
<defs>
<clipPath id="clip0_55_171">
<rect width="26.199" height="26.199" fill="white" transform="translate(0.640556 0.543457)"/>
</clipPath>
</defs>
</svg>
