<svg width="50" height="43" viewBox="0 0 50 43" fill="none" xmlns="http://www.w3.org/2000/svg">
<path d="M23.9079 0H22.9045L0 38.9854L0.53129 39.7385L9.03196 34.8725L13.3413 27.5737L11.8654 26.7626L17.6505 17.0307L19.0082 17.8998L23.9079 9.78985V0Z" fill="white"/>
<path d="M26.0921 0H27.0957L50 38.9854L49.4688 39.7385L40.9682 34.8725L36.6589 27.5737L38.1346 26.7626L32.3495 17.0307L30.9918 17.8998L26.0921 9.78985V0Z" fill="white"/>
<path d="M39.6695 36.9001H10.0944L1.4758 41.766L2.30224 42.6928H14.7579L18.2998 40.6074H33.0579L36.4226 42.6928H47.6978L48.4062 41.766L39.6695 36.9001Z" fill="white"/>
<path d="M23.9079 0H22.9045L0 38.9854L0.53129 39.7385L9.03196 34.8725L13.3413 27.5737L11.8654 26.7626L17.6505 17.0307L19.0082 17.8998L23.9079 9.78985V0Z" fill="white"/>
<path d="M26.0921 0H27.0957L50 38.9854L49.4688 39.7385L40.9682 34.8725L36.6589 27.5737L38.1346 26.7626L32.3495 17.0307L30.9918 17.8998L26.0921 9.78985V0Z" fill="white"/>
<path d="M39.6695 36.9001H10.0944L1.4758 41.766L2.30224 42.6928H14.7579L18.2998 40.6074H33.0579L36.4226 42.6928H47.6978L48.4062 41.766L39.6695 36.9001Z" fill="white"/>
</svg>
