<svg width="108" height="108" viewBox="0 0 108 108" fill="#000" xmlns="http://www.w3.org/2000/svg">
<g filter="url(#filter0_f_1_10)">
<path d="M4 29C4 15.1929 15.1929 4 29 4H79C92.8071 4 104 15.1929 104 29V79C104 92.8071 92.8071 104 79 104H4V29Z" fill="black" fill-opacity="0.5"/>
</g>
<path d="M4 29C4 15.1929 15.1929 4 29 4H79C92.8071 4 104 15.1929 104 29V79C104 92.8071 92.8071 104 79 104H4V29Z" fill="url(#paint0_linear_1_10)"/>
<g style="mix-blend-mode:overlay">
<mask id="mask0_1_10" style="mask-type:alpha" maskUnits="userSpaceOnUse" x="4" y="4" width="100" height="100">
<rect x="4" y="4" width="100" height="100" rx="25" fill="url(#paint1_linear_1_10)"/>
</mask>
<g mask="url(#mask0_1_10)">
<path opacity="0.3" d="M4 4H104V104L51.5 55L4 4Z" fill="url(#paint2_linear_1_10)"/>
</g>
</g>
<defs>
<filter id="filter0_f_1_10" x="0" y="0" width="108" height="108" filterUnits="userSpaceOnUse" color-interpolation-filters="sRGB">
<feFlood flood-opacity="0" result="BackgroundImageFix"/>
<feBlend mode="normal" in="SourceGraphic" in2="BackgroundImageFix" result="shape"/>
<feGaussianBlur stdDeviation="2" result="effect1_foregroundBlur_1_10"/>
</filter>
<linearGradient id="paint0_linear_1_10" x1="54" y1="4" x2="54" y2="104" gradientUnits="userSpaceOnUse">
<stop stop-color="#000000"/>
<stop offset="1" stop-color="#000000"/>
</linearGradient>
<linearGradient id="paint1_linear_1_10" x1="6.32558" y1="51.3684" x2="100.512" y2="51.3684" gradientUnits="userSpaceOnUse">
<stop stop-color="#07569E"/>
<stop offset="1" stop-color="#0093DD"/>
</linearGradient>
<linearGradient id="paint2_linear_1_10" x1="98" y1="95.5" x2="-9.5" y2="-19" gradientUnits="userSpaceOnUse">
<stop offset="0.116225" stop-color="white" stop-opacity="0"/>
<stop offset="1" stop-color="white"/>
</linearGradient>
</defs>
</svg>
