<svg width="211" height="90" viewBox="0 0 211 90" fill="none" xmlns="http://www.w3.org/2000/svg">
<path d="M203.567 31.3462C203.259 31.15 202.915 31.0177 202.556 30.9568C202.198 30.8959 201.831 30.9077 201.476 30.9915C201.122 31.0752 200.787 31.2293 200.491 31.4449C200.195 31.6605 199.944 31.9334 199.751 32.248C199.559 32.5627 199.429 32.9129 199.37 33.2787C199.31 33.6444 199.321 34.0186 199.404 34.3798C199.486 34.7411 199.637 35.0823 199.848 35.3839C200.06 35.6856 200.328 35.9419 200.636 36.1381C203.657 38.0585 205.46 41.3714 205.46 45.0005C205.46 48.6296 203.657 51.9425 200.636 53.8629L155.205 82.7399C152 84.7771 148.115 84.8773 144.813 83.0096C141.511 81.1414 139.539 77.7273 139.539 73.8775V16.123C139.539 12.2732 141.511 8.85913 144.813 6.99094C148.115 5.12321 152 5.22344 155.205 7.26058L181.652 24.071C181.961 24.2673 182.304 24.3996 182.663 24.4604C183.022 24.5213 183.389 24.5095 183.743 24.4258C184.098 24.342 184.432 24.1879 184.728 23.9723C185.024 23.7567 185.276 23.4838 185.468 23.1692C185.661 22.8545 185.79 22.5043 185.85 22.1386C185.91 21.7728 185.898 21.3986 185.816 21.0374C185.734 20.6762 185.583 20.335 185.371 20.0333C185.16 19.7316 184.892 19.4754 184.583 19.2791L158.136 2.46915C153.199 -0.669136 147.214 -0.824898 142.125 2.05363C137.037 4.93169 134 10.1913 134 16.123V73.8771C134 79.8087 137.037 85.0683 142.125 87.9464C144.549 89.3172 147.175 90 149.796 90C152.677 90 155.551 89.1746 158.136 87.5309L203.567 58.6538C208.222 55.6953 211 50.5914 211 45C211 39.4086 208.222 34.3047 203.567 31.3462Z" fill="url(#paint0_linear_109_38)"/>
<ellipse cx="137" cy="46.5" rx="5" ry="13.5" fill="black"/>
<path d="M22.04 28C22.8133 28 23.4267 28.2333 23.88 28.7C24.3333 29.1667 24.56 29.7867 24.56 30.56V54.04C24.56 54.8133 24.3267 55.44 23.86 55.92C23.3933 56.4 22.7867 56.64 22.04 56.64C21.2667 56.64 20.6533 56.4 20.2 55.92C19.7467 55.44 19.52 54.8133 19.52 54.04V44.16H5.08V54.04C5.08 54.8133 4.84667 55.44 4.38 55.92C3.91333 56.4 3.29333 56.64 2.52 56.64C1.77333 56.64 1.16667 56.4 0.7 55.92C0.233333 55.44 0 54.8133 0 54.04V30.56C0 29.7867 0.226667 29.1667 0.68 28.7C1.13333 28.2333 1.74667 28 2.52 28C3.29333 28 3.91333 28.2333 4.38 28.7C4.84667 29.1667 5.08 29.7867 5.08 30.56V40H19.52V30.56C19.52 29.7867 19.7467 29.1667 20.2 28.7C20.6533 28.2333 21.2667 28 22.04 28ZM38.68 36.36C41.4 36.36 43.42 37.0333 44.74 38.38C46.06 39.7267 46.72 41.7733 46.72 44.52V54.28C46.72 55 46.5067 55.5667 46.08 55.98C45.6533 56.3933 45.0667 56.6 44.32 56.6C43.6267 56.6 43.06 56.3867 42.62 55.96C42.18 55.5333 41.96 54.9733 41.96 54.28V53.4C41.5067 54.44 40.7933 55.2533 39.82 55.84C38.8467 56.4267 37.72 56.72 36.44 56.72C35.1333 56.72 33.9467 56.4533 32.88 55.92C31.8133 55.3867 30.9733 54.6533 30.36 53.72C29.7467 52.7867 29.44 51.7467 29.44 50.6C29.44 49.16 29.8067 48.0267 30.54 47.2C31.2733 46.3733 32.4667 45.7733 34.12 45.4C35.7733 45.0267 38.0533 44.84 40.96 44.84H41.96V43.92C41.96 42.6133 41.68 41.66 41.12 41.06C40.56 40.46 39.6533 40.16 38.4 40.16C37.6267 40.16 36.84 40.2733 36.04 40.5C35.24 40.7267 34.2933 41.0533 33.2 41.48C32.5067 41.8267 32 42 31.68 42C31.2 42 30.8067 41.8267 30.5 41.48C30.1933 41.1333 30.04 40.68 30.04 40.12C30.04 39.6667 30.1533 39.2733 30.38 38.94C30.6067 38.6067 30.9867 38.2933 31.52 38C32.4533 37.4933 33.5667 37.0933 34.86 36.8C36.1533 36.5067 37.4267 36.36 38.68 36.36ZM37.44 53.12C38.7733 53.12 39.86 52.6733 40.7 51.78C41.54 50.8867 41.96 49.7333 41.96 48.32V47.48H41.24C39.4533 47.48 38.0667 47.56 37.08 47.72C36.0933 47.88 35.3867 48.16 34.96 48.56C34.5333 48.96 34.32 49.5067 34.32 50.2C34.32 51.0533 34.62 51.7533 35.22 52.3C35.82 52.8467 36.56 53.12 37.44 53.12ZM67.24 36.44C68.0133 36.44 68.6267 36.6533 69.08 37.08C69.5333 37.5067 69.76 38.08 69.76 38.8V54.32C69.76 55.0133 69.5267 55.5733 69.06 56C68.5933 56.4267 67.9867 56.64 67.24 56.64C66.52 56.64 65.9467 56.44 65.52 56.04C65.0933 55.64 64.88 55.0933 64.88 54.4V53.4C64.2667 54.4667 63.44 55.2867 62.4 55.86C61.36 56.4333 60.1867 56.72 58.88 56.72C54.08 56.72 51.68 54.0267 51.68 48.64V38.8C51.68 38.08 51.9067 37.5067 52.36 37.08C52.8133 36.6533 53.4133 36.44 54.16 36.44C54.9333 36.44 55.5467 36.6533 56 37.08C56.4533 37.5067 56.68 38.08 56.68 38.8V48.68C56.68 50.0667 56.96 51.0933 57.52 51.76C58.08 52.4267 58.96 52.76 60.16 52.76C61.5467 52.76 62.66 52.3 63.5 51.38C64.34 50.46 64.76 49.24 64.76 47.72V38.8C64.76 38.08 64.9867 37.5067 65.44 37.08C65.8933 36.6533 66.4933 36.44 67.24 36.44ZM77.44 56.64C76.72 56.64 76.1267 56.4333 75.66 56.02C75.1933 55.6067 74.96 55.0133 74.96 54.24V30.36C74.96 29.5867 75.1933 29 75.66 28.6C76.1267 28.2 76.72 28 77.44 28C78.16 28 78.76 28.2 79.24 28.6C79.72 29 79.96 29.5867 79.96 30.36V54.24C79.96 55.0133 79.72 55.6067 79.24 56.02C78.76 56.4333 78.16 56.64 77.44 56.64ZM108.12 53.16C108.44 53.64 108.6 54.1067 108.6 54.56C108.6 55.1733 108.353 55.68 107.86 56.08C107.367 56.48 106.787 56.68 106.12 56.68C105.693 56.68 105.287 56.58 104.9 56.38C104.513 56.18 104.187 55.88 103.92 55.48L98.6 47.4C98.0667 46.5467 97.5 45.9467 96.9 45.6C96.3 45.2533 95.52 45.08 94.56 45.08H90.64V54.04C90.64 54.84 90.4133 55.4733 89.96 55.94C89.5067 56.4067 88.8933 56.64 88.12 56.64C87.3467 56.64 86.7267 56.4067 86.26 55.94C85.7933 55.4733 85.56 54.84 85.56 54.04V30.64C85.56 29.8667 85.78 29.2667 86.22 28.84C86.66 28.4133 87.2667 28.2 88.04 28.2H98.04C101.24 28.2 103.673 28.9133 105.34 30.34C107.007 31.7667 107.84 33.8267 107.84 36.52C107.84 38.7067 107.22 40.5 105.98 41.9C104.74 43.3 102.987 44.2 100.72 44.6C101.493 44.7867 102.173 45.12 102.76 45.6C103.347 46.08 103.92 46.7467 104.48 47.6L108.12 53.16ZM97.32 41.12C99.2667 41.12 100.693 40.7533 101.6 40.02C102.507 39.2867 102.96 38.16 102.96 36.64C102.96 35.0933 102.507 33.9667 101.6 33.26C100.693 32.5533 99.2667 32.2 97.32 32.2H90.6V41.12H97.32ZM121.28 36.36C124 36.36 126.02 37.0333 127.34 38.38C128.66 39.7267 129.32 41.7733 129.32 44.52V54.28C129.32 55 129.107 55.5667 128.68 55.98C128.253 56.3933 127.667 56.6 126.92 56.6C126.227 56.6 125.66 56.3867 125.22 55.96C124.78 55.5333 124.56 54.9733 124.56 54.28V53.4C124.107 54.44 123.393 55.2533 122.42 55.84C121.447 56.4267 120.32 56.72 119.04 56.72C117.733 56.72 116.547 56.4533 115.48 55.92C114.413 55.3867 113.573 54.6533 112.96 53.72C112.347 52.7867 112.04 51.7467 112.04 50.6C112.04 49.16 112.407 48.0267 113.14 47.2C113.873 46.3733 115.067 45.7733 116.72 45.4C118.373 45.0267 120.653 44.84 123.56 44.84H124.56V43.92C124.56 42.6133 124.28 41.66 123.72 41.06C123.16 40.46 122.253 40.16 121 40.16C120.227 40.16 119.44 40.2733 118.64 40.5C117.84 40.7267 116.893 41.0533 115.8 41.48C115.107 41.8267 114.6 42 114.28 42C113.8 42 113.407 41.8267 113.1 41.48C112.793 41.1333 112.64 40.68 112.64 40.12C112.64 39.6667 112.753 39.2733 112.98 38.94C113.207 38.6067 113.587 38.2933 114.12 38C115.053 37.4933 116.167 37.0933 117.46 36.8C118.753 36.5067 120.027 36.36 121.28 36.36ZM120.04 53.12C121.373 53.12 122.46 52.6733 123.3 51.78C124.14 50.8867 124.56 49.7333 124.56 48.32V47.48H123.84C122.053 47.48 120.667 47.56 119.68 47.72C118.693 47.88 117.987 48.16 117.56 48.56C117.133 48.96 116.92 49.5067 116.92 50.2C116.92 51.0533 117.22 51.7533 117.82 52.3C118.42 52.8467 119.16 53.12 120.04 53.12ZM145.76 36.36C148.107 36.36 149.853 37.0267 151 38.36C152.147 39.6933 152.72 41.7067 152.72 44.4V54.24C152.72 54.9867 152.5 55.5733 152.06 56C151.62 56.4267 151.013 56.64 150.24 56.64C149.467 56.64 148.853 56.4267 148.4 56C147.947 55.5733 147.72 54.9867 147.72 54.24V44.68C147.72 43.16 147.433 42.0533 146.86 41.36C146.287 40.6667 145.387 40.32 144.16 40.32C142.72 40.32 141.567 40.7733 140.7 41.68C139.833 42.5867 139.4 43.8 139.4 45.32V54.24C139.4 54.9867 139.173 55.5733 138.72 56C138.267 56.4267 137.653 56.64 136.88 56.64C136.107 56.64 135.5 56.4267 135.06 56C134.62 55.5733 134.4 54.9867 134.4 54.24V38.76C134.4 38.0667 134.627 37.5067 135.08 37.08C135.533 36.6533 136.147 36.44 136.92 36.44C137.613 36.44 138.18 36.6467 138.62 37.06C139.06 37.4733 139.28 38.0133 139.28 38.68V39.76C139.947 38.6667 140.84 37.8267 141.96 37.24C143.08 36.6533 144.347 36.36 145.76 36.36ZM175.2 52.52C175.733 53.0267 176 53.6 176 54.24C176 54.8533 175.78 55.4 175.34 55.88C174.9 56.36 174.387 56.6 173.8 56.6C173.213 56.6 172.667 56.36 172.16 55.88L162.8 47.4V54.24C162.8 55.0133 162.56 55.6 162.08 56C161.6 56.4 161 56.6 160.28 56.6C159.56 56.6 158.967 56.4 158.5 56C158.033 55.6 157.8 55.0133 157.8 54.24V30.36C157.8 29.5867 158.033 29 158.5 28.6C158.967 28.2 159.56 28 160.28 28C161 28 161.6 28.2 162.08 28.6C162.56 29 162.8 29.5867 162.8 30.36V45.4L171.36 37.2C171.84 36.72 172.387 36.48 173 36.48C173.613 36.48 174.147 36.7067 174.6 37.16C175.053 37.6133 175.28 38.1467 175.28 38.76C175.28 39.3733 175.027 39.9333 174.52 40.44L168.24 46.28L175.2 52.52Z" fill="#4F2CFF"/>
<defs>
<linearGradient id="paint0_linear_109_38" x1="172.5" y1="0" x2="172.5" y2="90" gradientUnits="userSpaceOnUse">
<stop stop-color="#FF164B"/>
<stop offset="1" stop-color="#FFB199"/>
</linearGradient>
</defs>
</svg>
