<svg width="147" height="105" viewBox="0 0 147 105" fill="none" xmlns="http://www.w3.org/2000/svg">
<path fill-rule="evenodd" clip-rule="evenodd" d="M99.3189 44.6145C117.481 53.5353 132.087 66.9808 140.715 82.6963C143.352 87.4393 146.172 96.2402 146.488 100.532C146.721 103.738 146.571 104.122 145.419 104.673C143.833 105.424 143.732 105.291 142.849 98.9615C140.231 80.9094 120.485 58.8796 96.6806 47.553C91.2552 44.9636 81.89 41.9059 80.6878 42.3064C80.3372 42.4232 80.4874 43.0411 81.0381 44.0265C86.4288 53.1953 89.6816 66.9726 88.4612 75.3385C87.0403 85.1072 79.36 88.1115 70.997 82.2151C61.165 75.2497 54.3562 61.3214 55.8941 51.2355C56.9472 44.5394 62.3908 39.1634 69.0522 38.2797C71.9405 37.9296 71.9406 37.7626 69.5036 35.2906C64.1288 30.0127 56.7338 25.8532 46.6507 22.4781C31.9935 17.5657 19.0552 15.8098 10.5071 17.5448C7.21806 18.1954 5.94927 18.0616 5.56552 16.9093C4.91479 14.9554 11.3761 12.9695 18.5049 12.9875C26.3348 12.939 40.2578 15.9809 51.5595 20.1746C61.3587 23.8669 67.5517 27.759 73.7443 34.3229L77.1494 37.8638L81.6902 38.6328C87.5667 39.5691 92.4079 41.24 99.3189 44.6145ZM80.8472 81.2151C84.153 80.1136 85.6734 74.3194 84.6398 66.5374C83.8063 60.0246 80.3859 49.5871 78.0493 46.2469C77.9904 46.1586 77.915 46.0464 77.8273 45.916C77.4174 45.3063 76.7388 44.297 76.2301 43.4578C75.0951 41.7209 74.7613 41.5538 72.3572 41.6869C69.1183 41.8199 64.6271 43.372 63.2578 44.7745C60.5193 47.5794 59.2163 51.5201 59.5326 56.3127C60.1981 68.0022 73.5844 83.635 80.8472 81.2151ZM11.0925 5.10537C15.5341 1.23208 17.6212 -0.0199424 18.6228 0.481221C20.0084 1.13275 19.5237 3.68761 17.9209 4.22166C15.717 4.95599 3.77786 16.5595 4.12825 17.6116C4.19499 17.812 7.3 19.1151 11.0728 20.4184C20.6884 23.8936 26.6646 26.8004 27.1485 28.2533C27.8326 30.3074 25.5287 30.4072 20.9713 28.4191C18.6843 27.4 14.8448 25.8964 12.4409 25.0275C9.9869 24.1754 6.44785 22.7386 4.5782 21.8031C-2.36626 18.4953 -1.28055 15.7402 11.0925 5.10537Z" fill="url(#paint0_linear_1_30685)"/>
<defs>
<linearGradient id="paint0_linear_1_30685" x1="11.9545" y1="21.9768" x2="123.256" y2="60.5974" gradientUnits="userSpaceOnUse">
<stop stop-color="#AE22DF"/>
<stop offset="1" stop-color="#29DEEC"/>
</linearGradient>
</defs>
</svg>
